# 3ds Max Wavefront OBJ Exporter v0.97b - (c)2007 guruware
# File Created: 01.03.2014 03:24:51

mtllib Crank.mtl

#
# object Crank
#

v  0.062500 0.000000 0.062500
v  0.062500 0.000000 0.000000
v  0.062500 0.125000 0.062500
v  0.062500 0.125000 0.000000
v  0.000000 0.187500 0.062500
v  0.000000 0.187500 0.000000
v  0.000000 0.000000 0.062500
v  0.000000 0.000000 0.000000
v  0.187500 0.187500 0.062500
v  0.250000 0.125000 0.062500
v  0.187500 0.375000 0.062500
v  0.250000 0.375000 0.062500
v  0.250000 0.125000 0.000000
v  0.187500 0.187500 0.000000
v  0.250000 0.375000 0.000000
v  0.187500 0.375000 0.000000
# 16 vertices

vn 1.000000 0.000000 0.000000
vn -1.000000 0.000000 0.000000
vn -0.000000 -0.000000 1.000000
vn 0.000000 0.000000 1.000000
vn 0.000000 0.000000 -1.000000
vn 0.000000 1.000000 0.000000
vn 0.000000 -1.000000 0.000000
vn 1.000000 -0.000000 -0.000000
vn -0.000000 1.000000 0.000000
# 9 vertex normals

vt -0.000000 1.000000 0.000000
vt -0.000000 0.875000 0.000000
vt 0.250000 1.000000 0.000000
vt 0.250000 0.875000 0.000000
vt 1.000000 0.750000 0.000000
vt 1.000000 0.875000 0.000000
vt 0.625000 0.750000 0.000000
vt 0.625000 0.875000 0.000000
vt 0.000000 0.875000 0.000000
vt 0.000000 0.750000 0.000000
vt 0.375000 0.875000 0.000000
vt 0.250000 0.750000 0.000000
vt 0.375000 0.500000 0.000000
vt 0.250000 0.375000 0.000000
vt 0.625000 0.500000 0.000000
vt 0.625000 0.375000 0.000000
vt 1.000000 0.625000 0.000000
vt 0.750000 0.625000 0.000000
vt 0.750000 0.250000 0.000000
vt 0.375000 0.250000 0.000000
vt 0.375000 0.375000 0.000000
vt 0.125000 0.125000 0.000000
vt 0.125000 0.000000 0.000000
vt 0.500000 0.125000 0.000000
vt 0.500000 0.000000 0.000000
vt 0.375000 1.000000 0.000000
vt 0.625000 0.250000 0.000000
vt 0.625000 0.125000 0.000000
vt 1.000000 0.250000 0.000000
vt 1.000000 0.125000 0.000000
vt 1.000000 1.000000 0.000000
vt 0.625000 1.000000 0.000000
vt 0.500000 0.250000 0.000000
vt 0.125000 0.250000 0.000000
vt 0.500000 0.875000 0.000000
vt 0.500000 1.000000 0.000000
# 36 texture coords

g Crank
usemtl Material__2
s 1
f 1/1/1 2/2/1 3/3/1 
f 3/3/1 2/2/1 4/4/1 
f 5/5/2 6/6/2 7/7/2 
f 7/7/2 6/6/2 8/8/2 
s 2
f 7/9/3 1/10/3 5/11/3 
f 5/11/3 1/10/3 3/12/4 
f 5/11/3 3/12/4 9/13/4 
f 9/13/4 3/12/4 10/14/4 
f 9/13/4 10/14/4 11/15/4 
f 11/15/4 10/14/4 12/16/4 
f 2/17/5 8/5/5 4/18/5 
f 4/18/5 8/5/5 6/7/5 
f 4/18/5 6/7/5 13/19/5 
f 13/19/5 6/7/5 14/16/5 
f 13/19/5 14/16/5 15/20/5 
f 15/20/5 14/16/5 16/21/5 
s 4
f 6/22/6 5/23/6 14/24/6 
f 14/24/6 5/23/6 9/25/6 
f 2/11/7 1/26/7 8/4/7 
f 8/4/7 1/26/7 7/3/7 
f 13/27/7 10/28/7 4/29/7 
f 4/29/7 10/28/7 3/30/7 
s 1
f 13/31/1 15/32/8 10/6/8 
f 10/6/8 15/32/8 12/8/8 
f 11/24/2 16/33/2 9/22/2 
f 9/22/2 16/33/2 14/34/2 
s 4
f 16/8/9 11/32/9 15/35/9 
f 15/35/9 11/32/9 12/36/9 
# 0 polygons - 28 triangles

