# 3ds Max Wavefront OBJ Exporter v0.97b - (c)2007 guruware
# File Created: 29.05.2014 21:48:16

mtllib Sintering_Oven.mtl

#
# object VIFS002
#

v  0.750000 0.437500 0.998359
v  0.750000 0.812500 0.998359
v  0.750000 0.437500 0.935859
v  0.750000 0.812500 0.935859
v  0.250000 0.437500 0.998359
v  0.250000 0.437500 0.935859
v  0.250000 0.812500 0.998359
v  0.250000 0.812500 0.935859
v  0.000000 0.312500 0.998359
v  0.000000 0.500000 0.998359
v  0.000000 0.312500 0.935859
v  0.000000 0.500000 0.935859
v  0.062500 0.312500 0.998359
v  0.062500 0.312500 0.935859
v  0.062500 0.250000 0.998359
v  0.062500 0.250000 0.935859
v  0.937500 0.250000 0.998359
v  0.937500 0.250000 0.935859
v  0.937500 1.000000 0.998359
v  0.937500 1.000000 0.935859
v  0.062500 1.000000 0.998359
v  0.062500 1.000000 0.935859
v  0.062500 0.937500 0.998359
v  0.062500 0.937500 0.935859
v  0.000000 0.937500 0.998359
v  0.000000 0.937500 0.935859
v  0.000000 0.750000 0.998359
v  0.000000 0.750000 0.935859
v  0.062500 0.750000 0.998359
v  0.062500 0.750000 0.935859
v  0.062500 0.500000 0.998359
v  0.062500 0.500000 0.935859
# 32 vertices

vn -1.000000 0.000000 -0.000000
vn 0.000000 1.000000 -0.000000
vn 1.000000 0.000000 -0.000000
vn 0.000000 -1.000000 -0.000000
vn 0.000000 0.000000 1.000000
vn 0.000000 0.000000 -1.000000
# 6 vertex normals

vt 0.166667 0.822917 0.000000
vt 0.104167 0.822917 0.000000
vt 0.166667 0.812500 0.000000
vt 0.104167 0.812500 0.000000
vt 0.250000 0.822917 0.000000
vt 0.250000 0.812500 0.000000
vt 0.312500 0.822917 0.000000
vt 0.312500 0.812500 0.000000
vt 0.010417 0.666667 0.000000
vt 0.010417 0.697917 0.000000
vt -0.000000 0.666667 0.000000
vt -0.000000 0.697917 0.000000
vt 0.010417 0.656250 0.000000
vt -0.000000 0.656250 0.000000
vt 0.010417 0.645833 0.000000
vt -0.000000 0.645833 0.000000
vt 0.166667 0.666667 0.000000
vt 0.020833 0.666667 0.000000
vt 0.166667 0.656250 0.000000
vt 0.020833 0.656250 0.000000
vt 0.312500 0.666667 0.000000
vt 0.312500 0.656250 0.000000
vt 0.020833 0.791667 0.000000
vt 0.166667 0.791667 0.000000
vt 0.020833 0.802083 0.000000
vt 0.166667 0.802083 0.000000
vt 0.010417 0.802083 0.000000
vt 0.010417 0.812500 0.000000
vt -0.000000 0.802083 0.000000
vt -0.000000 0.812500 0.000000
vt 0.010417 0.791667 0.000000
vt -0.000000 0.791667 0.000000
vt 0.010417 0.760417 0.000000
vt -0.000000 0.760417 0.000000
vt 0.010417 0.750000 0.000000
vt -0.000000 0.750000 0.000000
vt 0.010417 0.708333 0.000000
vt -0.000000 0.708333 0.000000
vt 0.020833 0.822917 0.000000
vt 0.020833 0.812500 0.000000
vt 0.020833 0.708333 0.000000
vt 0.010417 0.677083 0.000000
vt 0.020833 0.781250 0.000000
vt 0.052083 0.760417 0.000000
vt 0.020833 0.677083 0.000000
vt 0.052083 0.697917 0.000000
vt 0.135417 0.697917 0.000000
vt 0.135417 0.760417 0.000000
vt 0.010417 0.781250 0.000000
vt 0.020833 0.750000 0.000000
vt 0.010417 0.614583 0.000000
vt 0.020833 0.614583 0.000000
vt 0.020833 0.645833 0.000000
vt 0.010417 0.541667 0.000000
vt 0.020833 0.541667 0.000000
vt 0.052083 0.562500 0.000000
vt 0.020833 0.531250 0.000000
vt 0.135417 0.562500 0.000000
vt 0.166667 0.531250 0.000000
vt 0.135417 0.625000 0.000000
vt 0.052083 0.625000 0.000000
vt 0.010417 0.572917 0.000000
vt 0.020833 0.572917 0.000000
# 63 texture coords

g VIFS002
usemtl Material__2
s 1
f 1/1/1 2/2/1 3/3/1 
f 3/3/1 2/2/1 4/4/1 
s 2
f 5/5/2 1/1/2 6/6/2 
f 6/6/2 1/1/2 3/3/2 
s 1
f 7/7/3 5/5/3 8/8/3 
f 8/8/3 5/5/3 6/6/3 
f 9/9/1 10/10/1 11/11/1 
f 11/11/1 10/10/1 12/12/1 
s 2
f 13/13/4 9/9/4 14/14/4 
f 14/14/4 9/9/4 11/11/4 
s 1
f 15/15/1 13/13/1 16/16/1 
f 16/16/1 13/13/1 14/14/1 
s 2
f 17/17/4 15/18/4 18/19/4 
f 18/19/4 15/18/4 16/20/4 
s 1
f 19/21/3 17/17/3 20/22/3 
f 20/22/3 17/17/3 18/19/3 
s 2
f 21/23/2 19/24/2 22/25/2 
f 22/25/2 19/24/2 20/26/2 
s 1
f 23/27/1 21/28/1 24/29/1 
f 24/29/1 21/28/1 22/30/1 
s 2
f 25/31/2 23/27/2 26/32/2 
f 26/32/2 23/27/2 24/29/2 
s 1
f 27/33/1 25/31/1 28/34/1 
f 28/34/1 25/31/1 26/32/1 
s 2
f 29/35/4 27/33/4 30/36/4 
f 30/36/4 27/33/4 28/34/4 
s 1
f 31/37/1 29/35/1 32/38/1 
f 32/38/1 29/35/1 30/36/1 
s 2
f 10/10/2 31/37/2 12/12/2 
f 12/12/2 31/37/2 32/38/2 
f 2/2/4 7/39/4 4/4/4 
f 4/4/4 7/39/4 8/40/4 
s 4
f 31/41/5 10/37/5 9/42/5 
f 19/24/5 21/23/5 23/43/5 
f 7/44/5 13/45/5 5/46/5 
f 5/46/5 13/45/5 15/18/5 
f 5/46/5 15/18/5 1/47/5 
f 1/47/5 15/18/5 17/17/5 
f 1/47/5 17/17/5 2/48/5 
f 2/48/5 17/17/5 19/24/5 
f 2/48/5 19/24/5 7/44/5 
f 7/44/5 19/24/5 23/43/5 
f 25/49/5 27/35/5 29/50/5 
f 9/42/5 13/45/5 31/41/5 
f 31/41/5 13/45/5 7/44/5 
f 31/41/5 7/44/5 29/50/5 
f 29/50/5 7/44/5 23/43/5 
f 29/50/5 23/43/5 25/49/5 
f 12/51/6 32/52/6 11/15/6 
f 11/15/6 32/52/6 14/53/6 
f 26/54/6 24/55/6 8/56/6 
f 8/56/6 24/55/6 22/57/6 
f 8/56/6 22/57/6 4/58/6 
f 4/58/6 22/57/6 20/59/6 
f 4/58/6 20/59/6 3/60/6 
f 3/60/6 20/59/6 18/19/6 
f 3/60/6 18/19/6 6/61/6 
f 28/62/6 26/54/6 30/63/6 
f 30/63/6 26/54/6 8/56/6 
f 30/63/6 8/56/6 32/52/6 
f 32/52/6 8/56/6 6/61/6 
f 32/52/6 6/61/6 14/53/6 
f 14/53/6 6/61/6 18/19/6 
f 14/53/6 18/19/6 16/20/6 
# 0 polygons - 64 triangles

#
# object VIFS003
#

v  0.250000 0.437500 0.967109
v  0.250000 0.812500 0.967109
v  0.250000 0.437500 0.935859
v  0.250000 0.812500 0.935859
v  0.750000 0.437500 0.967109
v  0.750000 0.437500 0.935859
v  0.750000 0.812500 0.967109
v  0.750000 0.812500 0.935859
# 8 vertices

vn -1.000000 0.000000 -0.000000
vn 0.000000 -1.000000 -0.000000
vn 1.000000 0.000000 -0.000000
vn 0.000000 1.000000 -0.000000
vn 0.000000 0.000000 1.000000
vn 0.000000 0.000000 -1.000000
# 6 vertex normals

vt 0.458333 1.000000 0.000000
vt 0.458333 0.947917 0.000000
vt 0.468750 1.000000 0.000000
vt 0.468750 0.947917 0.000000
vt 0.354167 1.000000 0.000000
vt 0.354167 0.937500 0.000000
vt 0.364583 1.000000 0.000000
vt 0.364583 0.937500 0.000000
vt 0.395833 0.947917 0.000000
vt 0.395833 1.000000 0.000000
vt 0.385417 0.947917 0.000000
vt 0.385417 1.000000 0.000000
vt 0.458333 0.864583 0.000000
vt 0.468750 0.864583 0.000000
vt 0.458333 0.895833 0.000000
vt 0.375000 0.895833 0.000000
vt 0.375000 0.947917 0.000000
# 17 texture coords

g VIFS003
usemtl Material__2
s 1
f 33/64/7 34/65/7 35/66/7 
f 35/66/7 34/65/7 36/67/7 
s 2
f 37/68/8 33/69/8 38/70/8 
f 38/70/8 33/69/8 35/71/8 
s 1
f 39/72/9 37/73/9 40/74/9 
f 40/74/9 37/73/9 38/75/9 
s 2
f 34/65/10 39/76/10 36/67/10 
f 36/67/10 39/76/10 40/77/10 
s 4
f 37/73/11 39/72/11 33/64/11 
f 33/64/11 39/72/11 34/65/11 
f 40/78/12 38/65/12 36/79/12 
f 36/79/12 38/65/12 35/80/12 
# 0 polygons - 12 triangles

#
# object VIFS001
#

v  1.000000 0.125000 -0.001641
v  1.000000 0.125000 0.998359
v  1.000000 0.000000 -0.001641
v  1.000000 0.000000 0.998359
v  0.062500 0.250000 -0.001641
v  0.000000 0.250000 -0.001641
v  0.000000 1.000000 -0.001641
v  0.000000 0.000000 -0.001641
v  0.062500 0.125000 -0.001641
v  0.000000 0.125000 -0.001641
v  1.000000 1.000000 -0.001641
v  1.000000 0.250000 -0.001641
v  0.937500 0.250000 -0.001641
v  0.937500 0.125000 -0.001641
v  0.000000 0.125000 0.998359
v  0.000000 0.000000 0.998359
v  0.062500 0.125000 0.873359
v  0.937500 0.125000 0.873359
v  0.062500 0.250000 0.873359
v  0.937500 0.250000 0.873359
v  1.000000 0.250000 0.935859
v  0.000000 0.250000 0.935859
v  0.000000 1.000000 0.935859
v  0.812500 0.875000 0.935859
v  1.000000 1.000000 0.935859
v  0.187500 0.875000 0.935859
v  0.187500 0.375000 0.935859
v  0.812500 0.375000 0.935859
v  0.187500 0.375000 0.185859
v  0.187500 0.875000 0.185859
v  0.812500 0.875000 0.185859
v  0.812500 0.375000 0.185859
# 32 vertices

vn 1.000000 0.000000 -0.000000
vn 0.000000 0.000000 -1.000000
vn -1.000000 0.000000 -0.000000
vn 0.000000 0.000000 1.000000
vn 0.000000 1.000000 -0.000000
vn 0.000000 -1.000000 -0.000000
# 6 vertex normals

vt 0.510417 0.697917 0.000000
vt 0.343750 0.697917 0.000000
vt 0.510417 0.677083 0.000000
vt 0.343750 0.677083 0.000000
vt 0.666667 0.718750 0.000000
vt 0.677083 0.718750 0.000000
vt 0.677083 0.843750 0.000000
vt 0.677083 0.677083 0.000000
vt 0.666667 0.697917 0.000000
vt 0.677083 0.697917 0.000000
vt 0.510417 0.843750 0.000000
vt 0.510417 0.718750 0.000000
vt 0.520833 0.718750 0.000000
vt 0.520833 0.697917 0.000000
vt 0.843750 0.697917 0.000000
vt 0.843750 0.677083 0.000000
vt 0.177083 0.697917 0.000000
vt 0.177083 0.677083 0.000000
vt 0.177083 1.000000 0.000000
vt 0.166667 1.000000 0.000000
vt 0.177083 0.854167 0.000000
vt 0.166667 0.833333 0.000000
vt 0.322917 0.854167 0.000000
vt 0.333333 0.833333 0.000000
vt 0.322917 1.000000 0.000000
vt 0.333333 1.000000 0.000000
vt 0.343750 0.510417 0.000000
vt 0.510417 0.510417 0.000000
vt 0.812500 0.718750 0.000000
vt 0.812500 0.697917 0.000000
vt 0.364583 0.718750 0.000000
vt 0.229167 0.718750 0.000000
vt 0.364583 0.697917 0.000000
vt 0.229167 0.697917 0.000000
vt 0.010417 0.989583 0.000000
vt -0.000000 0.989583 0.000000
vt 0.010417 0.843750 0.000000
vt -0.000000 0.833333 0.000000
vt 0.156250 0.843750 0.000000
vt 0.156250 0.989583 0.000000
vt 0.166667 0.989583 0.000000
vt 0.833333 0.843750 0.000000
vt 0.833333 0.718750 0.000000
vt 0.968750 0.822917 0.000000
vt 1.000000 0.843750 0.000000
vt 0.864583 0.822917 0.000000
vt 0.864583 0.739583 0.000000
vt 0.968750 0.739583 0.000000
vt 1.000000 0.718750 0.000000
vt 0.354167 0.843750 0.000000
vt 0.354167 0.718750 0.000000
vt 0.510417 1.000000 0.000000
vt 0.677083 1.000000 0.000000
vt 0.875000 0.614583 0.000000
vt 0.875000 0.531250 0.000000
vt 1.000000 0.614583 0.000000
vt 1.000000 0.531250 0.000000
vt 0.875000 0.427083 0.000000
vt 1.000000 0.427083 0.000000
vt 0.770833 0.531250 0.000000
vt 0.770833 0.614583 0.000000
vt 0.645833 0.531250 0.000000
vt 0.645833 0.614583 0.000000
vt 0.875000 0.718750 0.000000
# 64 texture coords

g VIFS001
usemtl Material__2
s 1
f 41/81/13 42/82/13 43/83/13 
f 43/83/13 42/82/13 44/84/13 
s 2
f 45/85/14 46/86/14 47/87/14 
f 43/83/14 48/88/14 49/89/14 
f 49/89/14 48/88/14 50/90/14 
f 51/91/14 52/92/14 53/93/14 
f 41/81/14 43/83/14 54/94/14 
f 54/94/14 43/83/14 49/89/14 
f 54/94/14 49/89/14 53/93/14 
f 53/93/14 49/89/14 45/85/14 
f 53/93/14 45/85/14 51/91/14 
f 51/91/14 45/85/14 47/87/14 
s 1
f 55/95/15 50/90/15 56/96/15 
f 56/96/15 50/90/15 48/88/15 
s 2
f 42/82/16 55/97/16 44/84/16 
f 44/84/16 55/97/16 56/98/16 
s 4
f 49/99/17 50/100/17 57/101/17 
f 57/101/17 50/100/17 55/102/17 
f 57/101/17 55/102/17 58/103/17 
f 58/103/17 55/102/17 42/104/17 
f 58/103/17 42/104/17 54/105/17 
f 54/105/17 42/104/17 41/106/17 
f 56/107/18 48/108/18 44/84/18 
f 44/84/18 48/108/18 43/83/18 
s 1
f 59/109/15 45/85/15 57/110/15 
f 57/110/15 45/85/15 49/89/15 
s 2
f 60/111/16 59/112/16 58/113/16 
f 58/113/16 59/112/16 57/114/16 
s 1
f 53/93/13 60/111/13 54/94/13 
f 54/94/13 60/111/13 58/113/13 
s 4
f 53/115/18 52/116/18 60/117/18 
f 60/117/18 52/116/18 61/118/18 
f 60/117/18 61/118/18 59/119/18 
f 59/119/18 61/118/18 62/102/18 
f 59/119/18 62/102/18 45/120/18 
f 45/120/18 62/102/18 46/121/18 
s 1
f 63/122/15 47/87/15 62/123/15 
f 62/123/15 47/87/15 46/86/15 
s 2
f 64/124/16 65/125/16 66/126/16 
f 66/126/16 65/125/16 63/122/16 
f 66/126/16 63/122/16 67/127/16 
f 67/127/16 63/122/16 62/123/16 
f 67/127/16 62/123/16 68/128/16 
f 68/128/16 62/123/16 61/129/16 
f 68/128/16 61/129/16 64/124/16 
f 64/124/16 61/129/16 65/125/16 
s 1
f 51/91/13 65/130/13 52/92/13 
f 52/92/13 65/130/13 61/131/13 
s 4
f 65/132/17 51/91/17 63/133/17 
f 63/133/17 51/91/17 47/87/17 
s 1
f 69/134/13 70/135/13 67/136/13 
f 67/136/13 70/135/13 66/137/13 
s 4
f 70/135/18 71/138/18 66/137/18 
f 66/137/18 71/138/18 64/139/18 
s 1
f 71/140/15 72/141/15 64/142/15 
f 64/142/15 72/141/15 68/143/15 
s 4
f 72/144/17 69/134/17 68/129/17 
f 68/129/17 69/134/17 67/136/17 
s 2
f 72/141/16 71/140/16 69/134/16 
f 69/134/16 71/140/16 70/135/16 
# 0 polygons - 60 triangles

#
# object VIFS004
#

v  0.812500 0.501000 0.217109
v  0.812500 0.501000 0.185859
v  0.445312 0.501000 0.185859
v  0.445312 0.501000 0.935859
v  0.812500 0.501000 0.935859
v  0.531250 0.501000 0.873359
v  0.468750 0.501000 0.873359
v  0.468750 0.501000 0.248359
v  0.445312 0.501000 0.217109
v  0.531250 0.501000 0.248359
v  0.578125 0.501000 0.248359
v  0.640625 0.501000 0.248359
v  0.750000 0.501000 0.873359
v  0.687500 0.501000 0.873359
v  0.578125 0.501000 0.873359
v  0.640625 0.501000 0.873359
v  0.687500 0.501000 0.248359
v  0.750000 0.501000 0.248359
v  0.187500 0.501000 0.185859
v  0.359375 0.501000 0.248359
v  0.421875 0.501000 0.248359
v  0.312500 0.501000 0.873359
v  0.187500 0.501000 0.935859
v  0.250000 0.501000 0.873359
v  0.187500 0.501000 0.217109
v  0.250000 0.501000 0.248359
v  0.312500 0.501000 0.248359
v  0.421875 0.501000 0.873359
v  0.359375 0.501000 0.873359
v  0.187500 0.499000 0.217109
v  0.187500 0.499000 0.185859
v  0.445312 0.499000 0.185859
v  0.250000 0.499000 0.248359
v  0.445312 0.499000 0.217109
v  0.312500 0.499000 0.248359
v  0.359375 0.499000 0.248359
v  0.312500 0.499000 0.873359
v  0.359375 0.499000 0.873359
v  0.250000 0.499000 0.873359
v  0.187500 0.499000 0.935859
v  0.445312 0.499000 0.935859
v  0.421875 0.499000 0.873359
v  0.421875 0.499000 0.248359
v  0.812500 0.499000 0.185859
v  0.687500 0.499000 0.873359
v  0.750000 0.499000 0.873359
v  0.812500 0.499000 0.935859
v  0.812500 0.499000 0.217109
v  0.750000 0.499000 0.248359
v  0.687500 0.499000 0.248359
v  0.640625 0.499000 0.248359
v  0.578125 0.499000 0.248359
v  0.468750 0.499000 0.873359
v  0.468750 0.499000 0.248359
v  0.531250 0.499000 0.248359
v  0.531250 0.499000 0.873359
v  0.578125 0.499000 0.873359
v  0.640625 0.499000 0.873359
# 58 vertices

vn 0.000000 1.000000 -0.000000
vn 0.000000 -1.000000 -0.000000
vn -1.000000 0.000000 -0.000000
vn 0.000000 0.000000 1.000000
vn 1.000000 0.000000 -0.000000
vn 0.000000 0.000000 -1.000000
# 6 vertex normals

vt 0.833333 0.979167 0.000000
vt 0.833333 0.989583 0.000000
vt 0.770833 0.989583 0.000000
vt 0.770833 0.854167 0.000000
vt 0.833333 0.854167 0.000000
vt 0.781250 0.864583 0.000000
vt 0.770833 0.864583 0.000000
vt 0.770833 0.979167 0.000000
vt 0.781250 0.979167 0.000000
vt 0.791667 0.979167 0.000000
vt 0.802083 0.979167 0.000000
vt 0.822917 0.864583 0.000000
vt 0.812500 0.864583 0.000000
vt 0.791667 0.864583 0.000000
vt 0.802083 0.864583 0.000000
vt 0.812500 0.979167 0.000000
vt 0.822917 0.979167 0.000000
vt 0.718750 0.989583 0.000000
vt 0.750000 0.979167 0.000000
vt 0.760417 0.979167 0.000000
vt 0.739583 0.864583 0.000000
vt 0.718750 0.854167 0.000000
vt 0.729167 0.864583 0.000000
vt 0.718750 0.979167 0.000000
vt 0.729167 0.979167 0.000000
vt 0.739583 0.979167 0.000000
vt 0.760417 0.864583 0.000000
vt 0.750000 0.864583 0.000000
vt 0.947917 0.979167 0.000000
vt 0.947917 0.989583 0.000000
vt 0.895833 0.989583 0.000000
vt 0.937500 0.979167 0.000000
vt 0.895833 0.979167 0.000000
vt 0.927083 0.979167 0.000000
vt 0.916667 0.979167 0.000000
vt 0.927083 0.864583 0.000000
vt 0.916667 0.864583 0.000000
vt 0.937500 0.864583 0.000000
vt 0.947917 0.854167 0.000000
vt 0.895833 0.854167 0.000000
vt 0.906250 0.864583 0.000000
vt 0.906250 0.979167 0.000000
vt 0.854167 0.864583 0.000000
vt 0.843750 0.864583 0.000000
vt 0.843750 0.979167 0.000000
vt 0.854167 0.979167 0.000000
vt 0.864583 0.979167 0.000000
vt 0.875000 0.979167 0.000000
vt 0.895833 0.864583 0.000000
vt 0.885417 0.979167 0.000000
vt 0.885417 0.864583 0.000000
vt 0.875000 0.864583 0.000000
vt 0.864583 0.864583 0.000000
# 53 texture coords

g VIFS004
usemtl Material__2
s 1
f 73/145/19 74/146/19 75/147/19 
f 76/148/19 77/149/19 78/150/19 
f 79/151/19 80/152/19 81/152/19 
f 81/152/19 80/152/19 82/153/19 
f 83/154/19 84/155/19 73/145/19 
f 73/145/19 85/156/19 77/149/19 
f 77/149/19 85/156/19 86/157/19 
f 82/153/19 78/150/19 87/158/19 
f 87/158/19 78/150/19 77/149/19 
f 87/158/19 77/149/19 88/159/19 
f 88/159/19 77/149/19 86/157/19 
f 88/159/19 86/157/19 84/155/19 
f 84/155/19 86/157/19 89/160/19 
f 84/155/19 89/160/19 73/145/19 
f 73/145/19 89/160/19 90/161/19 
f 73/145/19 90/161/19 85/156/19 
f 87/158/19 83/154/19 82/153/19 
f 82/153/19 83/154/19 73/145/19 
f 82/153/19 73/145/19 81/152/19 
f 81/152/19 73/145/19 75/147/19 
f 81/152/19 75/147/19 91/162/19 
f 92/163/19 93/164/19 81/152/19 
f 81/152/19 93/164/19 76/148/19 
f 81/152/19 76/148/19 79/151/19 
f 79/151/19 76/148/19 78/150/19 
f 76/148/19 94/165/19 95/166/19 
f 95/166/19 94/165/19 96/167/19 
f 95/166/19 96/167/19 97/168/19 
f 97/168/19 96/167/19 98/169/19 
f 97/168/19 98/169/19 99/170/19 
f 93/164/19 100/171/19 76/148/19 
f 76/148/19 100/171/19 101/172/19 
f 76/148/19 101/172/19 94/165/19 
f 94/165/19 101/172/19 92/163/19 
f 94/165/19 92/163/19 99/170/19 
f 99/170/19 92/163/19 81/152/19 
f 99/170/19 81/152/19 97/168/19 
f 97/168/19 81/152/19 91/162/19 
f 102/173/20 103/174/20 104/175/20 
f 105/176/20 106/177/20 107/178/20 
f 107/178/20 106/177/20 108/179/20 
f 107/178/20 108/179/20 109/180/20 
f 109/180/20 108/179/20 110/181/20 
f 111/182/20 109/180/20 112/183/20 
f 112/183/20 109/180/20 110/181/20 
f 112/183/20 110/181/20 113/184/20 
f 113/184/20 110/181/20 114/185/20 
f 113/184/20 114/185/20 106/177/20 
f 106/177/20 114/185/20 115/186/20 
f 106/177/20 115/186/20 108/179/20 
f 111/182/20 112/183/20 105/176/20 
f 105/176/20 112/183/20 102/173/20 
f 105/176/20 102/173/20 106/177/20 
f 106/177/20 102/173/20 104/175/20 
f 106/177/20 104/175/20 116/146/20 
f 117/187/20 118/188/20 119/149/20 
f 119/149/20 118/188/20 120/145/20 
f 120/145/20 118/188/20 121/189/20 
f 120/145/20 121/189/20 122/190/20 
f 106/177/20 123/191/20 124/192/20 
f 125/193/20 113/184/20 126/177/20 
f 126/177/20 113/184/20 106/177/20 
f 126/177/20 106/177/20 127/194/20 
f 127/194/20 106/177/20 124/192/20 
f 127/194/20 124/192/20 128/195/20 
f 128/195/20 124/192/20 129/196/20 
f 125/193/20 128/195/20 113/184/20 
f 113/184/20 128/195/20 129/196/20 
f 113/184/20 129/196/20 119/149/20 
f 119/149/20 129/196/20 130/197/20 
f 119/149/20 130/197/20 117/187/20 
f 117/187/20 130/197/20 123/191/20 
f 117/187/20 123/191/20 122/190/20 
f 122/190/20 123/191/20 106/177/20 
f 122/190/20 106/177/20 120/145/20 
f 120/145/20 106/177/20 116/146/20 
s 2
f 112/166/21 95/166/21 102/168/21 
f 102/168/21 95/166/21 97/168/21 
f 102/168/21 97/168/21 103/162/21 
f 103/162/21 97/168/21 91/162/21 
s 4
f 119/149/22 77/149/22 113/148/22 
f 113/148/22 77/149/22 76/148/22 
f 113/148/22 76/148/22 112/166/22 
f 112/166/22 76/148/22 95/166/22 
s 2
f 116/146/23 74/146/23 120/145/23 
f 120/145/23 74/146/23 73/145/23 
f 120/145/23 73/145/23 119/149/23 
f 119/149/23 73/145/23 77/149/23 
s 4
f 103/162/24 91/162/24 104/147/24 
f 104/147/24 91/162/24 75/147/24 
f 104/147/24 75/147/24 116/146/24 
f 116/146/24 75/147/24 74/146/24 
s 2
f 111/167/23 105/169/23 96/167/23 
f 96/167/23 105/169/23 98/169/23 
s 4
f 105/169/22 107/170/22 98/169/22 
f 98/169/22 107/170/22 99/170/22 
s 2
f 107/170/21 109/165/21 99/170/21 
f 99/170/21 109/165/21 94/165/21 
s 4
f 109/165/24 111/167/24 94/165/24 
f 94/165/24 111/167/24 96/167/24 
s 2
f 110/172/23 108/163/23 101/172/23 
f 101/172/23 108/163/23 92/163/23 
s 4
f 108/163/22 115/164/22 92/163/22 
f 92/163/22 115/164/22 93/164/22 
s 2
f 115/164/21 114/171/21 93/164/21 
f 93/164/21 114/171/21 100/171/21 
s 4
f 114/171/24 110/172/24 100/171/24 
f 100/171/24 110/172/24 101/172/24 
s 2
f 125/151/23 126/152/23 79/151/23 
f 79/151/23 126/152/23 80/152/23 
s 4
f 126/152/22 127/153/22 80/152/22 
f 80/152/22 127/153/22 82/153/22 
s 2
f 127/153/21 128/150/21 82/153/21 
f 82/153/21 128/150/21 78/150/21 
s 4
f 128/150/24 125/151/24 78/150/24 
f 78/150/24 125/151/24 79/151/24 
s 2
f 129/158/23 124/154/23 87/158/23 
f 87/158/23 124/154/23 83/154/23 
s 4
f 124/154/22 123/155/22 83/154/22 
f 83/154/22 123/155/22 84/155/22 
s 2
f 123/155/21 130/159/21 84/155/21 
f 84/155/21 130/159/21 88/159/21 
s 4
f 130/159/24 129/158/24 88/159/24 
f 88/159/24 129/158/24 87/158/24 
s 2
f 117/157/23 122/160/23 86/157/23 
f 86/157/23 122/160/23 89/160/23 
s 4
f 122/160/22 121/161/22 89/160/22 
f 89/160/22 121/161/22 90/161/22 
s 2
f 121/161/21 118/156/21 90/161/21 
f 90/161/21 118/156/21 85/156/21 
s 4
f 118/156/24 117/157/24 85/156/24 
f 85/156/24 117/157/24 86/157/24 
# 0 polygons - 132 triangles

