# 3ds Max Wavefront OBJ Exporter v0.97b - (c)2007 guruware
# File Created: 23.02.2014 01:00:06

mtllib SmashingTable.mtl

#
# object SmashingTable
#

v  0.968750 0.125000 0.156250
v  0.968750 0.125000 0.843750
v  0.843750 0.125000 0.843750
v  0.843750 0.125000 0.156250
v  0.031250 0.125000 0.843750
v  0.031250 0.125000 0.156250
v  0.156250 0.125000 0.156250
v  0.156250 0.125000 0.843750
v  0.156250 0.125000 0.031250
v  0.843750 0.125000 0.031250
v  0.843750 0.125000 0.968750
v  0.156250 0.125000 0.968750
v  0.968750 0.000000 0.031250
v  0.843750 0.000000 0.031250
v  0.968750 0.562500 0.031250
v  0.156250 0.000000 0.031250
v  0.031250 0.000000 0.031250
v  0.031250 0.562500 0.031250
v  0.031250 0.000000 0.156250
v  0.031250 0.000000 0.843750
v  0.031250 0.000000 0.968750
v  0.031250 0.562500 0.968750
v  0.156250 0.000000 0.156250
v  0.156250 0.000000 0.968750
v  0.843750 0.000000 0.968750
v  0.968750 0.000000 0.968750
v  0.968750 0.562500 0.968750
v  0.968750 0.000000 0.843750
v  0.968750 0.000000 0.156250
v  0.843750 0.000000 0.843750
v  0.843750 0.000000 0.156250
v  0.156250 0.000000 0.843750
v  0.000000 0.562500 1.000000
v  0.000000 0.562500 0.000000
v  1.000000 0.562500 0.000000
v  1.000000 0.562500 1.000000
v  1.000000 0.875000 0.000000
v  1.000000 0.875000 1.000000
v  0.000000 0.875000 0.000000
v  0.000000 0.875000 1.000000
# 40 vertices

vn 0.000000 -1.000000 -0.000000
vn -0.000000 -1.000000 0.000000
vn 0.000000 -1.000000 0.000000
vn 0.000000 0.000000 -1.000000
vn -1.000000 0.000000 0.000000
vn 0.000000 0.000000 1.000000
vn 1.000000 0.000000 0.000000
vn 1.000000 -0.000000 0.000000
vn -0.000000 0.000000 -1.000000
vn -1.000000 0.000000 -0.000000
vn 0.000000 1.000000 0.000000
# 11 vertex normals

vt 0.468750 0.062500 0.000000
vt 0.468750 0.375000 0.000000
vt 0.437500 0.375000 0.000000
vt 0.437500 0.062500 0.000000
vt 0.250000 0.375000 0.000000
vt 0.250000 0.062500 0.000000
vt 0.281250 0.062500 0.000000
vt 0.281250 0.375000 0.000000
vt 0.281250 0.000000 0.000000
vt 0.437500 0.000000 0.000000
vt 0.437500 0.437500 0.000000
vt 0.281250 0.437500 0.000000
vt 0.546875 0.343750 0.000000
vt 0.578125 0.343750 0.000000
vt 0.578125 0.406250 0.000000
vt 0.546875 0.625000 0.000000
vt 0.734375 0.343750 0.000000
vt 0.765625 0.343750 0.000000
vt 0.765625 0.625000 0.000000
vt 0.734375 0.406250 0.000000
vt 0.781250 0.343750 0.000000
vt 0.812500 0.343750 0.000000
vt 0.812500 0.406250 0.000000
vt 0.781250 0.625000 0.000000
vt 0.968750 0.343750 0.000000
vt 1.000000 0.343750 0.000000
vt 1.000000 0.625000 0.000000
vt 0.968750 0.406250 0.000000
vt 0.375000 0.531250 0.000000
vt 0.343750 0.531250 0.000000
vt 0.421875 0.718750 0.000000
vt 0.390625 0.718750 0.000000
vt 0.390625 0.656250 0.000000
vt 0.421875 0.656250 0.000000
vt 0.343750 0.468750 0.000000
vt 0.375000 0.468750 0.000000
vt 0.765625 0.312500 0.000000
vt 0.734375 0.312500 0.000000
vt 0.734375 0.250000 0.000000
vt 0.765625 0.031250 0.000000
vt 0.578125 0.312500 0.000000
vt 0.546875 0.312500 0.000000
vt 0.546875 0.031250 0.000000
vt 0.578125 0.250000 0.000000
vt 1.000000 0.312500 0.000000
vt 0.968750 0.312500 0.000000
vt 0.968750 0.250000 0.000000
vt 1.000000 0.031250 0.000000
vt 0.812500 0.312500 0.000000
vt 0.781250 0.312500 0.000000
vt 0.781250 0.031250 0.000000
vt 0.812500 0.250000 0.000000
vt 0.390625 0.468750 0.000000
vt 0.421875 0.468750 0.000000
vt 0.421875 0.531250 0.000000
vt 0.390625 0.531250 0.000000
vt 0.296875 0.531250 0.000000
vt 0.296875 0.468750 0.000000
vt 0.328125 0.468750 0.000000
vt 0.328125 0.531250 0.000000
vt 0.390625 0.750000 0.000000
vt 0.421875 0.750000 0.000000
vt 0.421875 0.812500 0.000000
vt 0.390625 0.812500 0.000000
vt 0.343750 0.718750 0.000000
vt 0.343750 0.656250 0.000000
vt 0.375000 0.656250 0.000000
vt 0.375000 0.718750 0.000000
vt 0.296875 0.812500 0.000000
vt 0.296875 0.750000 0.000000
vt 0.328125 0.750000 0.000000
vt 0.328125 0.812500 0.000000
vt 0.390625 0.625000 0.000000
vt 0.390625 0.562500 0.000000
vt 0.421875 0.562500 0.000000
vt 0.421875 0.625000 0.000000
vt 0.328125 0.656250 0.000000
vt 0.328125 0.718750 0.000000
vt 0.296875 0.718750 0.000000
vt 0.296875 0.656250 0.000000
vt 0.296875 0.562500 0.000000
vt 0.328125 0.562500 0.000000
vt 0.328125 0.625000 0.000000
vt 0.296875 0.625000 0.000000
vt 0.375000 0.750000 0.000000
vt 0.375000 0.812500 0.000000
vt 0.343750 0.812500 0.000000
vt 0.343750 0.750000 0.000000
vt 0.015625 0.531250 0.000000
vt 0.000000 1.000000 0.000000
vt 0.000000 0.500000 0.000000
vt 0.250000 0.500000 0.000000
vt 0.015625 0.968750 0.000000
vt 0.250000 1.000000 0.000000
vt 0.234375 0.968750 0.000000
vt 0.234375 0.531250 0.000000
vt 0.750000 0.687500 0.000000
vt 1.000000 0.687500 0.000000
vt 1.000000 0.843750 0.000000
vt 0.750000 0.843750 0.000000
vt 0.500000 0.843750 0.000000
vt 0.500000 0.687500 0.000000
vt 0.750000 1.000000 0.000000
vt 0.500000 1.000000 0.000000
vt 1.000000 1.000000 0.000000
vt 0.250000 -0.000000 0.000000
vt -0.000000 0.500000 0.000000
vt -0.000000 0.000000 0.000000
# 108 texture coords

g SmashingTable
usemtl Material__49
s 1
f 1/1/1 2/2/2 3/3/2 4/4/1 
f 5/5/2 6/6/1 7/7/1 8/8/2 
f 9/9/2 10/10/2 4/4/1 7/7/1 
f 7/7/1 4/4/1 3/3/2 8/8/2 
f 8/8/2 3/3/2 11/11/3 12/12/3 
s 2
f 13/13/4 14/14/4 10/15/4 15/16/4 
f 16/17/4 17/18/4 18/19/4 9/20/4 
f 9/20/4 18/19/4 15/16/4 10/15/4 
s 4
f 17/21/5 19/22/5 6/23/5 18/24/5 
f 20/25/5 21/26/5 22/27/5 5/28/5 
f 5/28/5 22/27/5 18/24/5 6/23/5 
s 2
f 7/29/6 6/30/6 19/30/6 23/29/6 
s 4
f 9/31/7 7/32/7 23/33/7 16/34/7 
s 1
f 23/29/3 19/30/3 17/35/3 16/36/3 
s 2
f 21/37/6 24/38/6 12/39/6 22/40/6 
f 25/41/6 26/42/6 27/43/6 11/44/6 
f 11/44/6 27/43/6 22/40/6 12/39/6 
s 4
f 26/45/7 28/46/7 2/47/8 27/48/8 
f 29/49/7 13/50/8 15/51/8 1/52/8 
f 1/52/8 15/51/8 27/48/8 2/47/8 
s 2
f 3/53/9 2/54/9 28/55/4 30/56/9 
s 4
f 11/57/10 3/58/10 30/59/5 25/60/10 
s 1
f 25/61/3 30/62/3 28/63/3 26/64/3 
s 4
f 4/65/5 10/66/5 14/67/5 31/68/5 
s 2
f 1/69/6 4/70/6 31/71/6 29/72/6 
s 1
f 31/73/3 14/74/3 13/75/3 29/76/3 
s 4
f 8/77/7 12/78/7 24/79/7 32/80/7 
s 2
f 5/81/4 8/82/4 32/83/4 20/84/4 
s 1
f 20/85/3 32/86/3 24/87/3 21/88/3 
f 18/89/3 33/90/3 34/91/3 35/92/3 
f 33/90/3 18/89/3 22/93/3 36/94/3 
f 36/94/3 22/93/3 27/95/3 35/92/3 
f 35/92/3 27/95/3 15/96/3 18/89/3 
s 2
f 37/97/7 38/98/7 36/99/7 35/100/7 
s 4
f 39/100/4 37/101/4 35/102/4 34/97/4 
s 2
f 40/103/5 39/104/5 34/101/5 33/100/5 
s 4
f 38/100/6 40/99/6 33/105/6 36/103/6 
s 1
f 39/106/11 40/92/11 38/107/11 37/108/11 
# 38 polygons

